<svg width="124" height="24" viewBox="0 0 124 24" fill="none" xmlns="http://www.w3.org/2000/svg">
<g clip-path="url(#clip0_656_11)">
<path d="M8.83 0H0V8.89915H8.83V0ZM7.35564 7.41324H1.47436V1.48591H7.35833V7.41596L7.35564 7.41324Z" fill="white"/>
<path d="M5.88399 2.96899H2.94604V5.92994H5.88399V2.96899Z" fill="white"/>
<path d="M0 23.7256H8.83V14.8264H0V23.7256ZM1.47436 16.3123H7.35833V22.2424H1.47436V16.3123Z" fill="white"/>
<path d="M5.88399 17.7957H2.94604V20.7566H5.88399V17.7957Z" fill="white"/>
<path d="M14.7112 0V8.89915H23.5412V0H14.7112ZM22.0695 7.41324H16.1855V1.48591H22.0695V7.41596V7.41324Z" fill="white"/>
<path d="M20.5952 2.96899H17.6572V5.92994H20.5952V2.96899Z" fill="white"/>
<path d="M2.94603 10.3823H0V13.3433H4.40961V11.8574H2.94603V10.3823Z" fill="white"/>
<path d="M7.3557 10.3823H4.40967V11.8601H7.3557V10.3823Z" fill="white"/>
<path d="M8.83007 10.3823V11.8574H7.35571V13.3433H10.3017V10.3823H8.82738H8.83007Z" fill="white"/>
<path d="M13.2395 5.92993H11.7651V8.89903H13.2395V5.92993Z" fill="white"/>
<path d="M11.768 8.89917H10.3018V10.3851H11.768V8.89917Z" fill="white"/>
<path d="M13.237 10.3796H11.7708V11.8655H13.237V10.3796Z" fill="white"/>
<path d="M13.2397 4.44414V1.48591H11.7653V0H10.3018V5.93005H11.7653V4.44414H13.2397Z" fill="white"/>
<path d="M13.3232 13.479H10.3853V16.4481H13.3232V13.479Z" fill="white"/>
<path d="M13.3232 17.9314H10.3853V19.4064H11.8488V20.8923H13.3232V17.9314Z" fill="white"/>
<path d="M11.8515 20.8923H10.3853V23.8614H11.8515V20.8923Z" fill="white"/>
<path d="M14.7976 16.4482H13.3232V17.9341H14.7976V16.4482Z" fill="white"/>
<path d="M14.7976 20.8923H13.3232V22.3782H14.7976V20.8923Z" fill="white"/>
<path d="M23.5953 9.9314C21.7624 12.273 20.8406 14.8862 20.7382 17.8363C20.7193 18.3389 20.8945 18.5127 21.35 18.4665C21.7436 18.4258 21.8595 18.5426 21.8595 18.7979V24H23.6842C23.6842 24 23.5926 12.4251 23.5926 9.9314H23.5953Z" fill="#FFA808"/>
<path d="M19.7921 12.4576C19.7921 11.6726 19.8083 11.0369 19.7975 10.4013C19.7975 10.3714 19.8029 10.3415 19.8029 10.3143V9.91772H18.7517V13.5388H18.0078V9.91772H16.9566V13.5388H16.1669V9.91772H15.1157V10.4746C15.1157 11.7459 15.0968 13.0172 15.1318 14.2885C15.1561 15.1496 15.4553 15.9429 16.2693 16.3639C16.7248 16.6002 16.6925 16.9452 16.6925 17.3174V21.6556C16.6925 21.9897 16.6925 22.3238 16.6925 22.658C16.6925 22.6933 16.6925 22.7286 16.6925 22.7639V23.9972H18.2692V22.9486C18.2692 22.8617 18.28 22.7721 18.28 22.6797C18.2692 21.096 18.2692 19.5096 18.2692 17.9259V17.3255C18.2692 16.842 18.3905 16.4373 18.9458 16.1493C19.3986 15.9157 19.5792 15.3887 19.6978 14.8726C19.8299 14.2885 19.8056 13.7045 19.8056 13.1639V12.626C19.8056 12.569 19.7921 12.5092 19.7948 12.4549L19.7921 12.4576Z" fill="#FFA808"/>
<path d="M33.6111 19.6075V6.48151H29.1692V4.39526H40.4897V6.48151H36.0477V19.6075H33.6111Z" fill="white"/>
<path d="M40.425 19.6075L45.9451 4.39526H48.6621L54.1822 19.6075H51.5946L50.344 16H44.2417L42.9695 19.6075H40.425ZM44.9533 14.0224H49.654L47.282 7.28559L44.9533 14.0224Z" fill="white"/>
<path d="M56.6619 19.6075V4.39526H62.2035C63.7264 4.39526 64.9016 4.74297 65.7291 5.43839C66.5565 6.1338 66.9689 7.04654 66.9689 8.17659C66.9689 9.01598 66.7614 9.71139 66.3436 10.2628C65.9258 10.8143 65.4083 11.2055 64.7911 11.4363C65.3382 11.6401 65.8261 11.928 66.2573 12.3056C66.6886 12.6832 67.0309 13.1233 67.2816 13.6313C67.5322 14.1392 67.6589 14.6961 67.6589 15.3046C67.6589 16.1168 67.473 16.8476 67.0983 17.4995C66.7236 18.1515 66.1738 18.6649 65.4487 19.0425C64.7237 19.4201 63.8207 19.6075 62.7426 19.6075H56.6619ZM59.12 10.5888H62.0095C62.8423 10.5888 63.4623 10.4122 63.8639 10.0564C64.2655 9.70053 64.4676 9.18983 64.4676 8.5243C64.4676 7.85876 64.2655 7.3698 63.8639 7.01394C63.4623 6.65808 62.8288 6.48151 61.9663 6.48151H59.12V10.5888ZM59.12 17.5212H62.3976C63.3032 17.5212 63.9932 17.3175 64.4676 16.9128C64.942 16.508 65.1792 15.8995 65.1792 15.0873C65.1792 14.2751 64.9285 13.6666 64.4245 13.2618C63.9205 12.8571 63.2305 12.6533 62.3545 12.6533H59.12V17.5212Z" fill="white"/>
<path d="M70.4836 19.6075V4.39526H72.9418V17.543H79.6263V19.6075H70.4836Z" fill="white"/>
<path d="M82.4941 19.6075V4.39526H92.0681V6.48151H84.9523V10.5453H91.0977V12.6099H84.9523V17.5212H92.0681V19.6075H82.4941Z" fill="white"/>
<path d="M108.41 19.8683L106.901 18.3905C106.254 18.8686 105.539 19.2354 104.755 19.488C103.971 19.7406 103.141 19.8683 102.265 19.8683C101.216 19.8683 100.227 19.6809 99.2996 19.3033C98.3724 18.9257 97.5611 18.3933 96.863 17.706C96.1649 17.0187 95.6232 16.1929 95.235 15.2286C94.8469 14.2642 94.6528 13.1885 94.6528 12.0014C94.6528 10.8143 94.8469 9.7386 95.235 8.77425C95.6232 7.8099 96.1649 6.9841 96.863 6.29683C97.5611 5.60956 98.3697 5.07714 99.2888 4.69955C100.208 4.32196 101.2 4.13452 102.265 4.13452C103.329 4.13452 104.321 4.31924 105.24 4.68868C106.159 5.05812 106.968 5.58783 107.666 6.2751C108.364 6.96237 108.909 7.7936 109.305 8.76338C109.701 9.73316 109.898 10.8143 109.898 12.0014C109.898 12.944 109.771 13.816 109.52 14.6201C109.27 15.4242 108.914 16.1386 108.453 16.7607L109.984 18.2167L108.41 19.8683ZM97.1757 12.0014C97.1757 13.2048 97.4048 14.2289 97.8657 15.0765C98.3266 15.924 98.9438 16.5651 99.7201 16.9997C100.496 17.4344 101.345 17.6517 102.265 17.6517C102.855 17.6517 103.399 17.5838 103.903 17.4452C104.407 17.3067 104.86 17.0948 105.262 16.8041L102.933 14.5223L104.507 12.8707L106.728 15.0656C106.944 14.6744 107.105 14.2262 107.213 13.7182C107.321 13.2102 107.375 12.6398 107.375 12.0014C107.375 10.7709 107.146 9.73316 106.685 8.89377C106.224 8.05439 105.607 7.41873 104.831 6.99225C104.054 6.56576 103.2 6.35116 102.265 6.35116C101.329 6.35116 100.496 6.56848 99.7201 7.00311C98.9438 7.43775 98.3266 8.07612 97.8657 8.91551C97.4048 9.75489 97.1757 10.7844 97.1757 12.0014Z" fill="#FFA808"/>
<path d="M112.917 19.6075V4.39526H117.898C118.962 4.39526 119.873 4.56097 120.636 4.89509C121.399 5.22922 121.987 5.71275 122.404 6.35112C122.822 6.98949 123.03 7.78542 123.03 8.74161C123.03 9.85808 122.739 10.7328 122.156 11.3712C121.574 12.0095 120.774 12.4442 119.752 12.6751L124 19.6075H121.089L117.316 13.088H115.375V19.6075H112.917ZM115.375 11.0017H117.855C118.545 11.0017 119.086 10.9066 119.483 10.7192C119.879 10.5318 120.154 10.2656 120.313 9.92599C120.472 9.58644 120.55 9.18983 120.55 8.74161C120.55 8.2934 120.472 7.87506 120.313 7.5355C120.154 7.19594 119.879 6.93516 119.483 6.75316C119.086 6.57116 118.545 6.48151 117.855 6.48151H115.375V11.0017Z" fill="#FFA808"/>
</g>
<defs>
<clipPath id="clip0_656_11">
<rect width="124" height="24" fill="white"/>
</clipPath>
</defs>
</svg>
